<svg width="79" height="19" viewBox="0 0 79 19" fill="none" xmlns="http://www.w3.org/2000/svg">
<path d="M16.7676 5.61612H19.1918V8.44439H16.7676V14.1817H13.1312V10.6262C10.5454 11.1515 7.97975 11.4343 4.24238 11.4343H-2.70272e-05V8.66661H1.61613V2.92926H0.404012V0.201991H11.5555V2.92926H10.3434V8.36358C11.3333 8.24237 12.2626 8.10096 13.1312 7.93934V-2.87615e-05H16.7676V5.61612ZM1.99997 18.9898V12.9898H5.71713V16.1817H17.1716V18.9898H1.99997ZM5.25248 8.66661C5.75753 8.64641 6.24238 8.64641 6.70702 8.62621V2.92926H5.25248V8.66661ZM39.3938 7.03025V9.85853H36.9696V18.9898H33.3332V15.8181C30.7474 16.5656 28.1817 16.9898 24.4443 16.9898H20.808V0.606031H31.1514V3.3333H24.4443V14.2222C28.1413 14.2222 30.7676 13.8585 33.3332 13.1312V-2.87615e-05H36.9696V7.03025H39.3938ZM59.5958 7.03025V9.85853H57.1715V18.9898H53.5352V-2.87615e-05H57.1715V7.03025H59.5958ZM41.01 16.9898V0.606031H51.5756V16.9898H41.01ZM44.6463 14.2222H47.9796V3.3737H44.6463V14.2222ZM75.0503 -2.87615e-05H78.5856V10.9494H75.0503V-2.87615e-05ZM59.9998 8.78782C62.3634 8.30298 64.1412 7.5555 65.1311 6.60601L61.2119 6.84844V4.22218H65.9796V2.92926H61.616V0.201991H69.5149V3.83834H70.6664V0.100981H74.1008V10.9494H70.6664V6.66662H68.9897C67.919 8.74742 65.2321 10.4646 61.1513 11.4949L59.9998 8.78782ZM62.2018 16.1009C67.1917 15.9191 68.6462 14.8888 68.6462 13.1312V11.5959H72.2826V13.4545C72.2826 13.9393 72.222 14.404 72.1008 14.8282C74.4442 14.9898 76.7674 15.3131 78.5856 15.7373L77.6159 18.9898C75.5351 18.2625 72.626 17.5555 70.2826 17.1716C68.6058 18.3029 65.919 18.8484 62.5856 18.9898L62.2018 16.1009Z" fill="#3692FF"/>
</svg>
