<svg width="32" height="32" viewBox="0 0 32 32" fill="none" xmlns="http://www.w3.org/2000/svg">
<path d="M29.4667 12.1333C29.3334 7.6 25.7334 4 21.2001 4C19.7334 4 17.4667 5.06667 16.5334 6.8C16.4001 7.2 15.8667 7.2 15.7334 6.8C14.6667 5.2 12.5334 4.13333 10.9334 4.13333C6.53341 4.13333 2.80008 7.73333 2.66675 12.1333V12.4C2.66675 14.6667 3.60008 16.8 5.20008 18.4C5.20008 18.4 5.20008 18.4 5.20008 18.5333C5.33341 18.6667 11.7334 24.2667 14.6667 26.8C15.4667 27.4667 16.6667 27.4667 17.4667 26.8C20.4001 24.2667 26.6667 18.6667 26.9334 18.5333C26.9334 18.5333 26.9334 18.5333 26.9334 18.4C28.5334 16.9333 29.4667 14.8 29.4667 12.4V12.1333Z" fill="#FF68CC"/>
</svg>
