<svg width="151" height="40" viewBox="0 0 151 40" fill="none" xmlns="http://www.w3.org/2000/svg">
<g clip-path="url(#clip0_76796_970)">
<path d="M11 28.6756C14.8755 21.1503 21.427 8.96176 25.4871 11.5278C30.5622 14.7353 18.1052 24.6045 24.103 28.6756C30.1009 32.7467 35.6373 7.82676 41.0815 11.5277C46.5258 15.2287 35.8219 24.9746 40.0665 28.6756C43.4622 31.6364 49.294 21.2395 54 13.2619" stroke="#6500C3" stroke-width="15.8161" stroke-linecap="round"/>
<path d="M31.9414 15.0178C32.675 15.0178 33.393 15.5096 33.9443 16.4192C34.4921 17.323 34.8408 18.5929 34.8408 20.012C34.8407 21.4308 34.492 22.7001 33.9443 23.6038C33.393 24.5134 32.675 25.0051 31.9414 25.0051C31.2078 25.0051 30.4898 24.5134 29.9385 23.6038C29.3908 22.7001 29.0421 21.4308 29.042 20.012C29.042 18.5929 29.3907 17.323 29.9385 16.4192C30.4898 15.5096 31.2078 15.0179 31.9414 15.0178Z" fill="white" stroke="#0F172A" stroke-width="0.64436"/>
<path d="M33.0688 16.9508C33.4944 16.9508 33.9302 17.2304 34.2759 17.7887C34.6185 18.3422 34.8413 19.1274 34.8413 20.0114C34.8413 20.8954 34.6185 21.6805 34.2759 22.234C33.9302 22.7924 33.4944 23.0719 33.0688 23.0719C32.6434 23.0717 32.2084 22.7922 31.8628 22.234C31.5201 21.6805 31.2974 20.8954 31.2974 20.0114C31.2974 19.1274 31.5201 18.3422 31.8628 17.7887C32.2084 17.2306 32.6435 16.951 33.0688 16.9508Z" fill="#0F172A" stroke="#0F172A" stroke-width="0.64436"/>
<path d="M40.3184 15.0178C41.052 15.0178 41.77 15.5096 42.3213 16.4192C42.869 17.323 43.2178 18.5929 43.2178 20.012C43.2177 21.4308 42.869 22.7001 42.3213 23.6038C41.77 24.5134 41.052 25.0051 40.3184 25.0051C39.5848 25.0051 38.8667 24.5134 38.3154 23.6038C37.7677 22.7001 37.419 21.4308 37.4189 20.012C37.4189 18.5929 37.7677 17.323 38.3154 16.4192C38.8667 15.5096 39.5848 15.0179 40.3184 15.0178Z" fill="white" stroke="#0F172A" stroke-width="0.64436"/>
<path d="M41.4458 16.9508C41.8713 16.9508 42.3071 17.2304 42.6528 17.7887C42.9955 18.3422 43.2182 19.1274 43.2183 20.0114C43.2183 20.8954 42.9955 21.6805 42.6528 22.234C42.3071 22.7924 41.8714 23.0719 41.4458 23.0719C41.0204 23.0717 40.5853 22.7922 40.2397 22.234C39.8971 21.6805 39.6743 20.8954 39.6743 20.0114C39.6743 19.1274 39.8971 18.3422 40.2397 17.7887C40.5853 17.2306 41.0204 16.951 41.4458 16.9508Z" fill="#0F172A" stroke="#0F172A" stroke-width="0.64436"/>
<path fill-rule="evenodd" clip-rule="evenodd" d="M140.488 16.3812C142.227 16.3695 143.632 14.9852 143.621 13.2966C143.609 11.5575 142.185 10.1523 140.446 10.164C138.757 10.1753 137.392 11.5993 137.404 13.3384C137.415 15.027 138.799 16.3925 140.488 16.3812Z" fill="#6500C3"/>
<path fill-rule="evenodd" clip-rule="evenodd" d="M143.561 24.5705C143.264 23.5646 142.45 22.3681 140.262 22.3828C138.573 22.3942 137.205 23.7782 137.216 25.4668C137.227 27.0491 138.432 28.3493 139.989 28.4984L140.014 32.2505L140.491 31.9468C142.98 30.3664 144.184 26.6832 143.561 24.5705Z" fill="#6500C3"/>
<path d="M80.3301 19.6575C79.6426 18.9368 78.7868 18.5798 77.7629 18.5867C76.3976 18.5959 75.4079 18.9439 74.7938 19.6307C74.1797 20.3175 73.8764 21.2049 73.8837 22.2929C73.8904 23.2955 74.1732 24.1043 74.732 24.7193C75.2908 25.3342 76.1676 25.6376 77.3622 25.6296C77.9382 25.6257 78.4921 25.5047 79.0238 25.2664C79.5555 25.0282 80.0013 24.6945 80.3611 24.2654L80.3301 19.6575ZM70.0448 22.4787C70.0358 21.1347 70.2834 19.8851 70.7877 18.7296C71.2919 17.5742 72.0109 16.6307 72.9447 15.8991C73.8996 15.146 75.0061 14.7118 76.264 14.5967C76.9037 14.5498 77.5873 14.6838 78.3147 14.9989C79.0634 15.2926 79.7277 15.7255 80.3075 16.2976L80.2649 9.96171L84.6454 9.42025L84.7667 27.4678C84.7703 28.0012 84.5814 28.4611 84.2 28.8477C83.8187 29.2556 83.3508 29.4614 82.7961 29.4651L80.3962 29.4813L80.3837 27.6253C79.897 28.2259 79.2924 28.7207 78.5696 29.1095C77.8682 29.4983 77.1655 29.695 76.4615 29.6997C75.2029 29.7082 74.0807 29.3851 73.095 28.7304C72.1307 28.0968 71.3782 27.2379 70.8376 26.1535C70.3181 25.0476 70.0539 23.8227 70.0448 22.4787ZM94.0658 17.9331C93.1058 17.9396 92.2977 18.3183 91.6414 19.0694C91.0064 19.8204 90.6932 20.8252 90.7017 22.0838C90.7094 23.2358 90.9821 24.13 91.5197 24.7664C92.0787 25.4026 92.7848 25.7179 93.6381 25.7121C94.5981 25.7057 95.3956 25.3377 96.0308 24.608C96.6659 23.8784 96.9791 22.8736 96.9705 21.5936C96.9626 20.4203 96.6792 19.5156 96.1202 18.8793C95.5826 18.2429 94.8978 17.9275 94.0658 17.9331ZM86.9595 22.365C86.9491 20.829 87.228 19.4724 87.7961 18.2953C88.3856 17.1179 89.1899 16.1738 90.2091 15.463C91.2284 14.7521 92.388 14.2963 93.688 14.0956C94.1142 14.0287 94.5087 13.994 94.8713 13.9916C96.1086 13.9833 97.2198 14.2531 98.2049 14.8012C99.2112 15.3491 100.006 16.1651 100.589 17.2492C101.173 18.3333 101.47 19.6647 101.48 21.2433C101.492 22.9713 101.15 24.4669 100.454 25.7303C99.7801 26.9722 98.8477 27.9172 97.6574 28.5652C96.4885 29.2344 95.2001 29.5737 93.7922 29.5832C92.4909 29.592 91.3263 29.3118 90.2984 28.7427C89.2707 28.1949 88.4545 27.379 87.8499 26.2951C87.2666 25.211 86.9698 23.9009 86.9595 22.365ZM114.691 14.0503L114.778 27.042C114.782 27.6394 114.572 28.1528 114.149 28.5823C113.725 29.0332 113.204 29.2607 112.585 29.2648L110.665 29.2777L110.567 14.6861L114.691 14.0503ZM110.05 9.15342C110.044 8.34277 110.349 7.60471 110.963 6.93923C111.577 6.27375 112.279 5.93836 113.068 5.93305C113.666 5.92903 114.158 6.1284 114.544 6.53114C114.952 6.93374 115.159 7.45503 115.163 8.09502C115.168 8.927 114.864 9.66506 114.25 10.3092C113.635 10.9534 112.923 11.2781 112.112 11.2836C111.536 11.2875 111.044 11.0881 110.636 10.6855C110.25 10.2828 110.054 9.77207 110.05 9.15342ZM129.338 28.1282C128.828 28.3663 127.966 28.6281 126.752 28.9136L125.985 29.1107C125.836 29.1544 125.569 29.1775 125.185 29.1801C124.716 29.1833 124.236 29.1225 123.744 28.9978C123.274 28.8729 122.867 28.6837 122.524 28.43C121.023 27.2667 120.243 25.4266 120.183 22.9096L120.157 18.9737L117.79 19.2136L117.768 15.9177L120.134 15.6458L120.102 10.8779L124.098 10.307L124.131 15.1389L129.247 14.4965L129.259 16.3844C129.263 16.8537 129.105 17.2601 128.788 17.6036C128.491 17.947 128.109 18.1415 127.64 18.1874L124.154 18.5628L124.18 22.3707C124.184 22.9894 124.284 23.554 124.479 24.0647C124.674 24.5541 124.943 24.9256 125.287 25.1793C125.394 25.2426 125.543 25.2736 125.735 25.2723C126.076 25.27 126.524 25.203 127.078 25.0713C127.653 24.9181 128.143 24.7761 128.547 24.6454L129.338 28.1282Z" fill="#6500C3"/>
</g>
<defs>
<clipPath id="clip0_76796_970">
<rect width="151" height="40" fill="white"/>
</clipPath>
</defs>
</svg>
