<svg width="196" height="196" viewBox="0 0 196 196" fill="none" xmlns="http://www.w3.org/2000/svg">
<path d="M86.0466 52.337C89.2265 60.552 83.564 70.4013 76.3348 73.1996C69.1055 75.9979 58.5849 72.4129 55.405 64.1979C52.2251 55.9828 56.3465 43.8588 63.5757 41.0605C73.2154 37.3292 82.8667 44.122 86.0466 52.337Z" fill="#D1D5DB"/>
<path d="M90.1228 51.9828C88.4086 60.6234 95.6864 69.3474 103.29 70.8558C110.894 72.3643 120.638 67.017 122.352 58.3764C124.066 49.7358 117.914 38.5052 110.31 36.9968C100.171 34.9854 91.8369 43.3422 90.1228 51.9828Z" fill="#D1D5DB"/>
<path d="M164.866 114.979C164.866 144.048 136.664 154.854 98.1945 154.854C59.7251 154.854 32.1611 144.048 32.1611 114.979C32.1611 81.1645 59.7251 51.1783 98.1945 51.1783C136.664 51.1783 164.866 78.6125 164.866 114.979Z" fill="#F3F4F6"/>
<path d="M146.762 114.644C146.762 135.954 127.003 143.876 100.051 143.876C73.0996 143.876 53.7881 135.954 53.7881 114.644C53.7881 89.8556 73.0996 67.8734 100.051 67.8734C127.003 67.8734 146.762 87.9848 146.762 114.644Z" fill="#F9FAFB"/>
<path d="M97.5082 111.671C97.5082 118.718 93.211 126.449 87.2058 126.449C81.2007 126.449 71.5 120.707 71.5 110.18C71.5 100.291 81.9796 96.7739 92.8086 98.5798C99.4457 99.6866 97.5082 104.624 97.5082 111.671Z" fill="#D1D5DB"/>
<path d="M92.4857 110.959C92.4857 112.016 92.1837 112.873 90.6735 112.873C89.1634 112.873 88.8613 112.016 88.8613 110.959C88.8613 109.902 89.4654 109.045 90.6735 109.045C91.8817 109.045 92.4857 109.902 92.4857 110.959Z" fill="#F3F4F6"/>
<path d="M115.279 111.671C115.279 118.718 119.262 126.449 124.828 126.449C130.394 126.449 139.386 120.707 139.386 110.18C139.386 100.291 129.672 96.774 119.635 98.5799C113.484 99.6868 115.279 104.624 115.279 111.671Z" fill="#D1D5DB"/>
<path d="M119.935 110.959C119.935 112.016 120.215 112.873 121.614 112.873C123.014 112.873 123.294 112.016 123.294 110.959C123.294 109.902 122.734 109.045 121.614 109.045C120.494 109.045 119.935 109.902 119.935 110.959Z" fill="#F3F4F6"/>
<path d="M99.7138 121.936C99.3675 121.432 98.6784 121.304 98.1747 121.651C97.671 121.997 97.5434 122.686 97.8897 123.19L99.7138 121.936ZM106.919 120.349L107.965 119.989C107.812 119.542 107.391 119.242 106.919 119.242C106.446 119.242 106.025 119.542 105.872 119.989L106.919 120.349ZM115.947 123.19C116.294 122.686 116.166 121.997 115.662 121.651C115.159 121.304 114.47 121.432 114.123 121.936L115.947 123.19ZM97.8897 123.19C98.2225 123.674 98.8315 124.329 99.6498 124.87C100.475 125.415 101.572 125.883 102.86 125.883V123.67C102.119 123.67 101.441 123.4 100.871 123.023C100.294 122.642 99.8883 122.189 99.7138 121.936L97.8897 123.19ZM102.86 125.883C104.42 125.883 105.595 124.772 106.343 123.784C107.128 122.746 107.684 121.528 107.965 120.709L105.872 119.989C105.646 120.646 105.188 121.641 104.577 122.449C103.93 123.305 103.329 123.67 102.86 123.67V125.883ZM105.872 120.709C106.153 121.528 106.709 122.746 107.494 123.784C108.242 124.772 109.417 125.883 110.977 125.883V123.67C110.508 123.67 109.907 123.305 109.26 122.449C108.65 121.641 108.191 120.646 107.965 119.989L105.872 120.709ZM110.977 125.883C112.265 125.883 113.362 125.415 114.187 124.87C115.005 124.329 115.615 123.674 115.947 123.19L114.123 121.936C113.949 122.189 113.543 122.642 112.966 123.023C112.396 123.4 111.718 123.67 110.977 123.67V125.883Z" fill="#D1D5DB"/>
<path d="M113.675 119.211C113.675 120.249 108.934 121.573 107.429 121.967C107.131 122.045 106.821 122.045 106.524 121.967C105.019 121.573 100.277 120.249 100.277 119.211C100.277 117.978 103.981 116.659 106.976 116.659C109.971 116.659 113.675 117.978 113.675 119.211Z" fill="#D1D5DB"/>
<path d="M107.959 85.351C79.4856 87.1412 72.5407 78.052 71.499 74.217L87.4721 65.3097L105.529 61.9695L130.53 74.9592C129.025 78.052 125.469 84.2502 107.959 85.351Z" fill="#D1D5DB"/>
<path fill-rule="evenodd" clip-rule="evenodd" d="M101.648 154.946C138.126 154.946 164.869 144.14 164.869 115.071C164.869 78.7045 138.126 51.2703 101.648 51.2703C65.1704 51.2703 39.0332 81.2565 39.0332 115.071C39.0332 144.14 65.1704 154.946 101.648 154.946ZM100.215 143.781C127.047 143.781 146.718 135.868 146.718 114.58C146.718 87.9491 127.047 67.8589 100.215 67.8589C73.3822 67.8589 54.1563 89.818 54.1563 114.58C54.1563 135.868 73.3822 143.781 100.215 143.781Z" fill="#F3F4F6"/>
<path fill-rule="evenodd" clip-rule="evenodd" d="M24.1065 91.1729C28.1518 86.6433 35.4429 87.3947 38.4795 92.6541L42.9266 100.357C45.9631 105.616 42.9683 112.306 37.0229 113.545L35.0892 113.947C34.9785 113.971 34.8678 113.991 34.757 114.01C34.7153 114.125 34.6623 114.237 34.6001 114.344C32.8394 117.371 32.0011 124.344 40.6765 132.414C49.1296 140.277 56.4369 140.849 59.8006 140.009C60.0392 139.95 60.2871 139.933 60.5262 139.963L60.9665 139.09C63.7016 133.668 70.9387 132.506 75.233 136.801L81.5222 143.09C85.8165 147.384 84.6552 154.621 79.2329 157.357L78.8262 157.562C78.7148 157.738 78.5559 157.892 78.3494 158.004C67.6399 163.816 43.5652 161.006 30.3966 142.694C13.9143 119.773 15.5748 100.285 22.0736 93.3311C22.1843 93.2126 22.3105 93.1216 22.4454 93.0569C22.5559 92.9172 22.671 92.7802 22.7908 92.6461L24.1065 91.1729Z" fill="#D1D5DB"/>
<path d="M151.65 49.4414C152.22 48.1461 152.785 47.1462 153.346 46.4416C153.923 45.7308 154.521 45.2275 155.14 44.9316C155.759 44.6358 156.515 44.4198 157.407 44.2837C158.498 44.1162 159.369 43.8783 160.02 43.5701C160.682 43.2666 161.161 42.7773 161.458 42.102C161.775 41.3824 161.779 40.6971 161.471 40.0463C161.167 39.3843 160.65 38.8926 159.92 38.5713C159.444 38.3619 158.952 38.2778 158.445 38.319C157.943 38.3492 157.475 38.5131 157.04 38.8107C156.61 39.0973 156.272 39.5038 156.028 40.0303L150.747 37.7076C151.46 36.1453 152.403 34.9941 153.574 34.2541C154.761 33.5078 156.07 33.1454 157.501 33.1669C158.936 33.1774 160.401 33.5113 161.896 34.1686C163.512 34.8796 164.834 35.7648 165.861 36.8243C166.899 37.8887 167.55 39.0669 167.814 40.3589C168.089 41.6559 167.925 42.9907 167.321 44.3635C166.742 45.6809 165.926 46.6634 164.875 47.3109C163.824 47.9584 162.542 48.379 161.03 48.5727C160.234 48.6716 159.559 48.824 159.006 49.03C158.469 49.2297 157.999 49.5318 157.596 49.9361C157.194 50.3404 156.839 50.8913 156.533 51.5888L156.328 52.0538L151.446 49.9064L151.65 49.4414ZM150.596 58.6886C150.053 58.45 149.608 58.0956 149.26 57.6254C148.912 57.1552 148.707 56.6291 148.646 56.0473C148.585 55.4655 148.681 54.9002 148.936 54.3515C149.158 53.8153 149.502 53.3786 149.968 53.0416C150.433 52.7046 150.957 52.5055 151.539 52.4443C152.12 52.3831 152.683 52.4718 153.225 52.7104C153.745 52.9393 154.174 53.2864 154.511 53.7517C154.859 54.2219 155.072 54.7448 155.149 55.3205C155.237 55.901 155.17 56.4594 154.947 56.9956C154.693 57.5443 154.325 57.9903 153.843 58.3335C153.367 58.6657 152.835 58.8679 152.249 58.9401C151.667 59.0013 151.116 58.9175 150.596 58.6886Z" fill="#D1D5DB"/>
<path d="M167.617 61.1127C168.37 60.336 169.041 59.7698 169.63 59.414C170.233 59.0581 170.795 58.8563 171.317 58.8089C171.839 58.7614 172.438 58.8076 173.114 58.9473C173.94 59.1173 174.627 59.1784 175.176 59.1305C175.731 59.0891 176.204 58.8659 176.597 58.4609C177.015 58.0294 177.2 57.5395 177.152 56.9911C177.111 56.4361 176.871 55.9464 176.433 55.5218C176.147 55.2452 175.817 55.0543 175.443 54.9491C175.075 54.8372 174.696 54.8301 174.305 54.9278C173.921 55.0188 173.571 55.2205 173.256 55.5327L170.089 52.4644C171.016 51.5346 171.997 50.9602 173.033 50.7412C174.082 50.522 175.117 50.6103 176.136 51.0061C177.162 51.3952 178.123 52.024 179.019 52.8924C179.988 53.8315 180.7 54.8172 181.154 55.8495C181.615 56.8881 181.769 57.9055 181.614 58.9016C181.467 59.9041 180.994 60.8169 180.197 61.6401C179.431 62.43 178.586 62.9173 177.66 63.1019C176.735 63.2864 175.705 63.2471 174.57 62.9839C173.973 62.8429 173.448 62.7727 172.997 62.7733C172.559 62.7737 172.143 62.8652 171.747 63.048C171.351 63.2307 170.95 63.5312 170.545 63.9494L170.275 64.2282L167.347 61.3915L167.617 61.1127ZM164.403 67.4586C164.078 67.1434 163.853 66.771 163.729 66.3415C163.604 65.9121 163.597 65.4807 163.708 65.0475C163.819 64.6143 164.039 64.235 164.367 63.9095C164.669 63.5844 165.031 63.363 165.455 63.2452C165.878 63.1274 166.306 63.1239 166.739 63.2347C167.172 63.3456 167.551 63.5586 167.877 63.8738C168.189 64.1761 168.404 64.5388 168.521 64.9619C168.646 65.3914 168.659 65.8226 168.561 66.2556C168.47 66.695 168.274 67.0773 167.971 67.4023C167.643 67.7278 167.261 67.9496 166.825 68.0676C166.395 68.1789 165.961 68.1825 165.521 68.0783C165.088 67.9675 164.715 67.7609 164.403 67.4586Z" fill="#D1D5DB"/>
</svg>
