<svg width="256" height="257" viewBox="0 0 256 257" fill="none" xmlns="http://www.w3.org/2000/svg">
<rect y="0.984375" width="256" height="256" rx="28.9317" fill="#3692FF"/>
<path d="M123.612 72.2583C126.807 83.2642 118.358 95.3916 108.673 98.2036C98.9878 101.016 85.7561 95.1834 82.5606 84.1775C79.365 73.1717 86.0733 57.9224 95.7585 55.1103C108.673 51.3606 120.416 61.2525 123.612 72.2583Z" fill="#222327"/>
<path d="M128.938 72.2583C125.743 83.2642 134.192 95.3916 143.877 98.2036C153.562 101.016 166.794 95.1834 169.99 84.1775C173.185 73.1717 166.477 57.9224 156.792 55.1103C143.877 51.3606 132.134 61.2525 128.938 72.2583Z" fill="#222327"/>
<path d="M188.909 152.662C188.909 180.656 161.367 191.061 123.799 191.061C86.2301 191.061 59.3115 180.656 59.3115 152.662C59.3115 120.099 86.2301 91.2231 123.799 91.2231C161.367 91.2231 188.909 117.642 188.909 152.662Z" fill="#F3D6DD"/>
<path d="M111.363 147.135C111.363 156.304 105.458 166.362 97.2068 166.362C88.9554 166.362 75.626 158.891 75.626 145.196C75.626 132.33 90.0257 127.755 104.905 130.104C114.025 131.544 111.363 137.967 111.363 147.135Z" fill="#222327"/>
<path d="M104.46 146.209C104.46 147.585 104.045 148.699 101.97 148.699C99.895 148.699 99.48 147.585 99.48 146.209C99.48 144.834 100.31 143.719 101.97 143.719C103.63 143.719 104.46 144.834 104.46 146.209Z" fill="white"/>
<path d="M136.462 147.135C136.462 156.304 142.366 166.362 150.618 166.362C158.869 166.362 172.199 158.891 172.199 145.196C172.199 132.33 157.799 127.755 142.919 130.104C133.799 131.544 136.462 137.967 136.462 147.135Z" fill="#222327"/>
<path d="M143.371 146.209C143.371 147.585 143.786 148.699 145.861 148.699C147.937 148.699 148.352 147.585 148.352 146.209C148.352 144.834 147.522 143.719 145.861 143.719C144.201 143.719 143.371 144.834 143.371 146.209Z" fill="white"/>
<path d="M113.611 160.935C113.407 160.638 113.002 160.563 112.705 160.767C112.409 160.971 112.334 161.376 112.538 161.672L113.074 161.303L113.611 160.935ZM123.634 158.423L124.25 158.212C124.159 157.949 123.912 157.772 123.634 157.772C123.356 157.772 123.109 157.949 123.018 158.212L123.634 158.423ZM134.73 161.672C134.934 161.376 134.859 160.971 134.563 160.767C134.266 160.563 133.861 160.638 133.657 160.935L134.194 161.303L134.73 161.672ZM113.074 161.303L112.538 161.672C112.914 162.22 113.634 162.999 114.613 163.646C115.595 164.296 116.873 164.834 118.354 164.834V164.183V163.532C117.195 163.532 116.163 163.111 115.331 162.56C114.494 162.007 113.894 161.347 113.611 160.935L113.074 161.303ZM118.354 164.183V164.834C119.995 164.834 121.319 163.655 122.256 162.416C123.215 161.148 123.903 159.643 124.25 158.635L123.634 158.423L123.018 158.212C122.705 159.124 122.074 160.498 121.217 161.631C120.339 162.792 119.353 163.532 118.354 163.532V164.183ZM123.634 158.423L123.018 158.635C123.365 159.643 124.053 161.148 125.012 162.416C125.949 163.655 127.273 164.834 128.914 164.834V164.183V163.532C127.915 163.532 126.929 162.792 126.051 161.631C125.194 160.498 124.563 159.124 124.25 158.212L123.634 158.423ZM128.914 164.183V164.834C130.395 164.834 131.673 164.296 132.655 163.646C133.634 162.999 134.354 162.22 134.73 161.672L134.194 161.303L133.657 160.935C133.374 161.347 132.774 162.007 131.937 162.56C131.105 163.111 130.073 163.532 128.914 163.532V164.183Z" fill="#222327"/>
<path d="M132.422 156.942C132.422 158.38 125.423 160.24 123.97 160.611C123.794 160.656 123.62 160.656 123.445 160.611C121.991 160.24 114.992 158.38 114.992 156.942C114.992 155.338 119.811 153.622 123.707 153.622C127.604 153.622 132.422 155.338 132.422 156.942Z" fill="#222327"/>
<path d="M122.665 114.264C98.4458 114.264 89.5454 105.784 88.1055 100.825L99.6252 88.3448L124.585 84.0249L159.144 100.825C157.064 104.824 146.911 114.264 122.665 114.264Z" fill="#222327"/>
<path d="M126.017 70.1025C176.065 70.1025 212.755 105.794 212.755 153.105C212.755 190.925 176.065 204.982 126.017 204.982C75.9686 204.982 40.1084 190.925 40.1084 153.105C40.1086 109.114 75.9688 70.1027 126.017 70.1025ZM124.049 91.6855C87.2348 91.6857 60.8574 120.254 60.8574 152.47C60.8577 180.165 87.235 190.459 124.049 190.459C160.863 190.459 187.851 180.165 187.852 152.47C187.852 117.823 160.863 91.6855 124.049 91.6855Z" fill="white"/>
</svg>
