<svg width="24" height="24" viewBox="0 0 24 24" fill="none" xmlns="http://www.w3.org/2000/svg">
<path d="M15.7777 18.5816H6.88883C6.39995 18.5816 5.99995 18.1816 5.99995 17.6927V8.80382C5.99995 8.31493 6.39995 7.91493 6.88883 7.91493H11.3333C11.8222 7.91493 12.2222 7.51493 12.2222 7.02604C12.2222 6.53715 11.8222 6.13715 11.3333 6.13715H5.99995C5.01328 6.13715 4.22217 6.93715 4.22217 7.91493V18.5816C4.22217 19.5594 5.02217 20.3594 5.99995 20.3594H16.6666C17.6444 20.3594 18.4444 19.5594 18.4444 18.5816V13.2483C18.4444 12.7594 18.0444 12.3594 17.5555 12.3594C17.0666 12.3594 16.6666 12.7594 16.6666 13.2483V17.6927C16.6666 18.1816 16.2666 18.5816 15.7777 18.5816ZM13.9999 5.24826C13.9999 5.73715 14.3999 6.13715 14.8888 6.13715H17.1911L9.0755 14.2527C8.72883 14.5994 8.72883 15.1594 9.0755 15.506C9.42217 15.8527 9.98217 15.8527 10.3288 15.506L18.4444 7.39049V9.69271C18.4444 10.1816 18.8444 10.5816 19.3333 10.5816C19.8222 10.5816 20.2222 10.1816 20.2222 9.69271V5.24826C20.2222 4.75937 19.8222 4.35938 19.3333 4.35938H14.8888C14.3999 4.35938 13.9999 4.75937 13.9999 5.24826Z" fill="#07080B"/>
</svg>
